<?xml version="1.0" standalone="no"?>
<!DOCTYPE svg PUBLIC "-//W3C//DTD SVG 1.1//EN"
  "http://www.w3.org/Graphics/SVG/1.1/DTD/svg11.dtd">
<svg width="265.500" height="324.500" version="1.1"
     xmlns="http://www.w3.org/2000/svg">

<!-- created by Unknown on Sat, 08 May 2021 14:49:15 -0700, using Aspic 1.05 (04-March-2008) -->
<title>Unknown</title>

<g transform="translate(0,324.500)" font-family="Times" font-size="12">
<rect x="0.500" y="-324.500" width="100" height="36" fill="none" stroke="#000000" stroke-width="0.500"/>
<text x="50.500" y="-303.500" text-anchor="middle" font-family="Times" font-size="8">Hardware (CAN, USB, etc)</text>
<path d="M 50.500 -288.500
l 0 26
" fill="none" stroke="#000000" stroke-width="0.400"/>
<text x="53.500" y="-267.500" text-anchor="start" font-family="Times" font-size="5" font-style="italic">Raw Data</text>
<path d="M 50.500 -262.500
l -5 0
l 5 10
l 5 -10
l -5 0
" fill="none" stroke="#000000" stroke-width="0.4"/>
<rect x="0.500" y="-252.500" width="100" height="36" fill="none" stroke="#000000" stroke-width="0.500"/>
<text x="50.500" y="-231.500" text-anchor="middle" font-family="Times" font-size="8">Decoder</text>
<path d="M 50.500 -216.500
l 0 26
" fill="none" stroke="#000000" stroke-width="0.400"/>
<text x="53.500" y="-195.500" text-anchor="start" font-family="Times" font-size="5" font-style="italic">JSON</text>
<path d="M 50.500 -190.500
l -5 0
l 5 10
l 5 -10
l -5 0
" fill="none" stroke="#000000" stroke-width="0.4"/>
<rect x="0.500" y="-180.500" width="100" height="36" fill="none" stroke="#000000" stroke-width="0.500"/>
<text x="50.500" y="-159.500" text-anchor="middle" font-family="Times" font-size="8">Renderer</text>
<path d="M 50.500 -144.500
l 0 26
" fill="none" stroke="#000000" stroke-width="0.400"/>
<text x="53.500" y="-123.500" text-anchor="start" font-family="Times" font-size="5" font-style="italic">uDashboard Graphics Protocol</text>
<path d="M 50.500 -118.500
l -5 0
l 5 10
l 5 -10
l -5 0
" fill="none" stroke="#000000" stroke-width="0.4"/>
<rect x="0.500" y="-108.500" width="100" height="36" fill="none" stroke="#000000" stroke-width="0.500"/>
<text x="50.500" y="-87.500" text-anchor="middle" font-family="Times" font-size="8">Rasterizer</text>
<path d="M 50.500 -72.500
l 0 26
" fill="none" stroke="#000000" stroke-width="0.400"/>
<text x="53.500" y="-51.500" text-anchor="start" font-family="Times" font-size="5" font-style="italic">Pixel Buffer</text>
<path d="M 50.500 -46.500
l -5 0
l 5 10
l 5 -10
l -5 0
" fill="none" stroke="#000000" stroke-width="0.4"/>
<rect x="14.500" y="-36.500" width="72" height="36" fill="none" stroke="#000000" stroke-width="0.500"/>
<text x="50.500" y="-15.500" text-anchor="middle" font-family="Times" font-size="8">Screen</text>
<rect x="215.500" y="-252.500" width="50" height="36" fill="none" stroke="#000000" stroke-width="0.500"/>
<text x="240.500" y="-231.500" text-anchor="middle" font-family="Times" font-size="5">Input Config</text>
<path d="M 215.500 -234.500
l -105 0
" fill="none" stroke="#000000" stroke-width="0.400"/>
<text x="158" y="-236.500" text-anchor="middle" font-family="Times" font-size="5" font-style="italic">Hardware-Specific (e.g. CAN PID Mapping)</text>
<path d="M 110.500 -234.500
l 0 -5
l -10 5
l 10 5
l 0 -5
" fill="none" stroke="#000000" stroke-width="0.4"/>
<rect x="215.500" y="-180.500" width="50" height="36" fill="none" stroke="#000000" stroke-width="0.500"/>
<text x="240.500" y="-159.500" text-anchor="middle" font-family="Times" font-size="5">Layout</text>
<path d="M 215.500 -162.500
l -105 0
" fill="none" stroke="#000000" stroke-width="0.400"/>
<text x="158" y="-164.500" text-anchor="middle" font-family="Times" font-size="5" font-style="italic">uDLang script</text>
<path d="M 110.500 -162.500
l 0 -5
l -10 5
l 10 5
l 0 -5
" fill="none" stroke="#000000" stroke-width="0.4"/>
<rect x="215.500" y="-108.500" width="50" height="36" fill="none" stroke="#000000" stroke-width="0.500"/>
<text x="240.500" y="-87.500" text-anchor="middle" font-family="Times" font-size="5">Display Config</text>
<path d="M 215.500 -90.500
l -105 0
" fill="none" stroke="#000000" stroke-width="0.400"/>
<text x="158" y="-92.500" text-anchor="middle" font-family="Times" font-size="5" font-style="italic">resolution, orientation, scale, output, etc</text>
<path d="M 110.500 -90.500
l 0 -5
l -10 5
l 10 5
l 0 -5
" fill="none" stroke="#000000" stroke-width="0.4"/>
</g></svg>
